<svg xmlns="http://www.w3.org/2000/svg" viewBox="0 0 800 460" role="img" aria-labelledby="t d">
  <title id="t">Wireshark fraud traffic analysis</title><desc id="d">A security operations workstation visualising network packets and suspicious transaction traffic.</desc>
  <defs><linearGradient id="g" x1="0" y1="0" x2="1" y2="1"><stop stop-color="#12213a"/><stop offset="1" stop-color="#da7c10"/></linearGradient><filter id="s"><feDropShadow dx="0" dy="14" stdDeviation="14" flood-opacity=".28"/></filter></defs>
  <rect width="800" height="460" fill="url(#g)"/><circle cx="685" cy="-18" r="230" fill="#ffb441" opacity=".2"/><g opacity=".25" stroke="#ffc76b"><path d="M0 104h800M0 226h800M0 348h800M116 0v460M292 0v460M468 0v460M644 0v460"/></g>
  <g filter="url(#s)"><rect x="72" y="78" width="656" height="304" rx="30" fill="#07182e" stroke="#f4a11d" stroke-width="4"/><rect x="104" y="116" width="592" height="184" rx="14" fill="#0e2947"/><g stroke-linecap="round"><path d="M126 158h132l28 39 40-78 48 123 42-84 37 39h77l35-57 32 58h74" fill="none" stroke="#4de6ff" stroke-width="7"/><path d="M126 262h107l36-24 48 20 39-46 44 54 55-28 47 18h149" fill="none" stroke="#ffb229" stroke-width="6"/></g><g fill="#1e3b5c"><rect x="112" y="325" width="160" height="18" rx="9"/><rect x="290" y="325" width="160" height="18" rx="9"/><rect x="468" y="325" width="116" height="18" rx="9"/></g><circle cx="642" cy="334" r="21" fill="#ff9b1a"/><path d="m634 334 7 7 12-15" fill="none" stroke="#fff" stroke-width="5"/></g>
  <g fill="#fff" font-family="Arial,sans-serif" font-weight="700"><text x="58" y="52" font-size="22" letter-spacing="4">PACKETS • PATTERNS • RESPONSE</text><text x="596" y="425" font-size="18" opacity=".85">SOC PLAYBOOK</text></g>
</svg>
